<?xml version="1.0" encoding="UTF-8"?>
<svg xmlns="http://www.w3.org/2000/svg" xmlns:xlink="http://www.w3.org/1999/xlink" width="85.04pt" height="15.55pt" viewBox="0 0 85.04 15.55" version="1.1">
<defs>
<clipPath id="clip1">
  <path d="M 66 0 L 85.039063 0 L 85.039063 15.550781 L 66 15.550781 Z M 66 0 "/>
</clipPath>
</defs>
<g id="surface1">
<path style=" stroke:none;fill-rule:nonzero;fill:rgb(32.548523%,19.215393%,45.097351%);fill-opacity:1;" d="M 2.472656 7.265625 L 3.753906 3.792969 L 4.972656 7.265625 Z M 6.214844 10.765625 L 7.386719 10.765625 L 4.34375 2.402344 L 3.183594 2.402344 L 0 10.765625 L 1.183594 10.765625 L 2.121094 8.203125 L 5.304688 8.203125 Z M 11.78125 8.996094 C 11.78125 9.675781 11.226563 10.039063 10.28125 10.039063 C 9.519531 10.039063 9.007813 9.824219 8.726563 9.332031 L 7.597656 9.53125 C 8.035156 10.425781 8.949219 10.855469 10.238281 10.855469 C 11.984375 10.855469 12.898438 9.890625 12.898438 8.863281 C 12.898438 7.535156 11.675781 7.175781 10.269531 6.894531 C 9.59375 6.757813 8.796875 6.507813 8.796875 5.90625 C 8.796875 5.476563 9.214844 4.980469 10.050781 4.980469 C 10.90625 4.980469 11.417969 5.5625 11.496094 5.792969 L 12.484375 5.382813 C 12.03125 4.515625 11.121094 4.164063 10.171875 4.164063 C 8.703125 4.164063 7.730469 4.886719 7.730469 6.039063 C 7.730469 7.347656 8.851563 7.605469 9.9375 7.84375 C 10.875 8.042969 11.78125 8.273438 11.78125 8.996094 M 15.238281 2.402344 L 14.136719 2.863281 L 14.136719 4.40625 L 13.128906 4.40625 L 13.128906 5.296875 L 14.136719 5.296875 L 14.136719 9.378906 C 14.125 10.207031 14.125 10.808594 15.359375 10.808594 C 15.761719 10.808594 16.207031 10.726563 16.394531 10.703125 L 16.394531 9.820313 C 16.179688 9.886719 15.898438 9.96875 15.695313 9.96875 C 15.238281 9.96875 15.238281 9.648438 15.238281 8.894531 L 15.238281 5.296875 L 16.394531 5.296875 L 16.394531 4.40625 L 15.238281 4.40625 Z M 17.355469 4.40625 L 17.355469 10.765625 L 18.421875 10.765625 L 18.421875 7.84375 C 18.421875 7.296875 18.410156 6.652344 18.691406 6.191406 C 19.039063 5.628906 19.550781 5.410156 20.597656 5.40625 L 20.597656 4.304688 C 20.167969 4.316406 19.027344 4.34375 18.421875 5.542969 L 18.421875 4.40625 Z M 26.910156 2.40625 L 26.910156 3.433594 L 31.660156 3.433594 L 26.90625 9.679688 L 26.90625 10.765625 L 33.046875 10.765625 L 33.046875 9.761719 L 28.195313 9.761719 L 32.929688 3.449219 L 32.929688 2.40625 Z M 39.734375 4.40625 L 39.734375 10.765625 L 40.800781 10.765625 L 40.800781 7.160156 C 40.800781 6.6875 40.800781 6.207031 41.273438 5.738281 C 41.609375 5.402344 42.015625 5.253906 42.484375 5.253906 C 43.066406 5.253906 43.660156 5.523438 43.847656 6.125 C 43.917969 6.339844 43.917969 6.527344 43.917969 7.171875 L 43.917969 10.765625 L 44.980469 10.765625 L 44.980469 6.996094 C 44.980469 6.460938 44.980469 6.070313 44.871094 5.695313 C 44.5625 4.648438 43.59375 4.242188 42.78125 4.242188 C 42.40625 4.242188 41.394531 4.339844 40.800781 5.375 L 40.800781 4.40625 Z M 56.304688 9.226563 C 56.078125 9.664063 55.660156 10.058594 54.835938 10.058594 C 54.121094 10.058594 52.914063 9.605469 52.914063 7.507813 C 52.914063 6.945313 53.019531 4.949219 54.769531 4.949219 C 55.65625 4.949219 56.0625 5.429688 56.25 5.84375 L 57.25 5.429688 C 56.636719 4.402344 55.527344 4.164063 54.730469 4.164063 C 52.707031 4.164063 51.726563 5.792969 51.726563 7.589844 C 51.726563 9.144531 52.574219 10.878906 54.824219 10.878906 C 56.125 10.878906 56.851563 10.246094 57.246094 9.621094 Z M 34.582031 6.925781 L 37.953125 6.925781 C 37.855469 5.261719 36.898438 4.980469 36.261719 4.980469 C 35.347656 4.980469 34.699219 5.652344 34.582031 6.925781 M 38.832031 9.546875 C 38.464844 10.167969 37.765625 10.878906 36.382813 10.878906 C 34.503906 10.878906 33.421875 9.601563 33.421875 7.464844 C 33.421875 5.078125 35 4.164063 36.339844 4.164063 C 37.503906 4.164063 38.625 4.808594 39 6.402344 C 39.121094 6.941406 39.121094 7.421875 39.121094 7.691406 L 34.554688 7.691406 C 34.527344 8.753906 34.972656 10.097656 36.472656 10.074219 C 37.085938 10.0625 37.519531 9.785156 37.792969 9.347656 Z M 46.710938 6.925781 L 50.078125 6.925781 C 49.984375 5.261719 49.027344 4.980469 48.386719 4.980469 C 47.472656 4.980469 46.828125 5.652344 46.710938 6.925781 M 50.957031 9.546875 C 50.59375 10.167969 49.890625 10.878906 48.507813 10.878906 C 46.632813 10.878906 45.554688 9.601563 45.554688 7.464844 C 45.554688 5.078125 47.125 4.164063 48.46875 4.164063 C 49.632813 4.164063 50.75 4.808594 51.125 6.402344 C 51.246094 6.941406 51.246094 7.421875 51.246094 7.691406 L 46.679688 7.691406 C 46.65625 8.753906 47.101563 10.097656 48.601563 10.074219 C 49.214844 10.0625 49.644531 9.785156 49.917969 9.347656 Z M 63.078125 10.765625 L 61.964844 10.769531 C 61.964844 10.769531 61.871094 10.320313 61.839844 9.832031 C 61.519531 10.167969 60.921875 10.859375 59.710938 10.859375 C 58.476563 10.859375 57.5625 10.125 57.5625 9.054688 C 57.5625 8.71875 57.65625 8.382813 57.84375 8.097656 C 58.207031 7.5625 58.882813 7.132813 60.773438 6.984375 L 61.78125 6.902344 L 61.78125 6.742188 C 61.78125 6.082031 61.78125 4.980469 60.359375 4.980469 C 59.46875 4.980469 59.164063 5.414063 59.0625 5.804688 L 58.082031 5.394531 C 58.09375 5.359375 58.113281 5.324219 58.132813 5.289063 C 58.507813 4.59375 59.25 4.164063 60.320313 4.164063 C 60.910156 4.164063 61.671875 4.308594 62.171875 4.699219 C 62.875 5.238281 62.859375 6.292969 62.859375 6.292969 L 62.90625 9.554688 C 62.90625 9.554688 62.9375 10.5 63.078125 10.765625 M 61.617188 9.011719 C 61.78125 8.664063 61.792969 8.515625 61.792969 7.585938 C 61.378906 7.65625 60.816406 7.734375 60.128906 7.882813 C 58.949219 8.140625 58.746094 8.582031 58.746094 9.027344 C 58.746094 9.535156 59.152344 9.96875 59.941406 9.96875 C 60.679688 9.96875 61.3125 9.671875 61.617188 9.011719 M 26.15625 10.765625 L 25.042969 10.769531 C 25.042969 10.769531 24.949219 10.320313 24.917969 9.832031 C 24.59375 10.167969 23.996094 10.859375 22.789063 10.859375 C 21.554688 10.859375 20.636719 10.125 20.636719 9.054688 C 20.636719 8.71875 20.730469 8.382813 20.917969 8.097656 C 21.285156 7.5625 21.957031 7.132813 23.851563 6.984375 L 24.855469 6.902344 L 24.855469 6.742188 C 24.855469 6.082031 24.855469 4.980469 23.4375 4.980469 C 22.546875 4.980469 22.242188 5.414063 22.140625 5.804688 L 21.15625 5.394531 C 21.171875 5.359375 21.191406 5.324219 21.207031 5.289063 C 21.585938 4.59375 22.324219 4.164063 23.398438 4.164063 C 23.988281 4.164063 24.75 4.308594 25.246094 4.699219 C 25.953125 5.238281 25.9375 6.292969 25.9375 6.292969 L 25.980469 9.554688 C 25.980469 9.554688 26.019531 10.5 26.15625 10.765625 M 24.695313 9.011719 C 24.855469 8.664063 24.871094 8.515625 24.871094 7.585938 C 24.453125 7.65625 23.894531 7.734375 23.207031 7.882813 C 22.023438 8.140625 21.824219 8.582031 21.824219 9.027344 C 21.824219 9.535156 22.226563 9.96875 23.019531 9.96875 C 23.757813 9.96875 24.386719 9.671875 24.695313 9.011719 "/>
<g clip-path="url(#clip1)" clip-rule="nonzero">
<path style=" stroke:none;fill-rule:nonzero;fill:rgb(98.03772%,65.881348%,9.803772%);fill-opacity:1;" d="M 79.460938 7.695313 C 79.566406 7.859375 79.675781 8.027344 79.78125 8.191406 C 78.71875 10.105469 76.667969 14.222656 76.480469 14.578125 C 76.28125 14.960938 76.015625 15.628906 75.382813 15.542969 C 74.492188 15.425781 72.542969 13.882813 71.746094 13.226563 C 67.402344 9.675781 66.0625 8.085938 66.203125 7.03125 C 66.351563 5.90625 67.511719 5.28125 72.953125 5.207031 C 72.761719 5.832031 72.558594 6.527344 72.375 7.265625 C 71.585938 7.324219 70.390625 7.472656 69.980469 7.527344 C 69.515625 7.589844 69.339844 7.683594 69.3125 7.871094 C 69.289063 8.082031 69.78125 8.601563 70.265625 9.070313 C 70.484375 9.285156 71.09375 9.886719 71.761719 10.554688 C 71.726563 11.109375 71.84375 11.480469 72.117188 11.6875 C 72.332031 11.851563 72.632813 11.886719 73.007813 11.789063 C 73.367188 12.148438 73.679688 12.457031 73.875 12.652344 C 74.609375 13.394531 75.222656 14.175781 75.523438 14.21875 C 75.765625 14.25 76.019531 13.875 76.339844 13.339844 C 77.117188 12.039063 78.851563 8.828125 79.460938 7.695313 M 74.027344 2.714844 C 73.59375 3.964844 72.4375 7.0625 72.011719 10.328125 C 71.863281 11.449219 72.261719 11.902344 73.332031 11.441406 C 74.390625 10.984375 76.160156 9.800781 77.488281 8.5625 C 78.816406 7.324219 79.171875 5.980469 77.125 5.554688 C 77.054688 5.535156 76.980469 5.523438 76.910156 5.507813 C 76.382813 5.40625 75.875 5.328125 75.425781 5.289063 C 75.175781 5.839844 74.910156 6.453125 74.652344 7.070313 C 75.121094 7.035156 75.929688 6.980469 76.554688 6.953125 C 76.632813 6.949219 76.710938 6.945313 76.785156 6.941406 C 77.796875 6.90625 77.792969 7.25 77.382813 7.824219 C 76.902344 8.496094 74.195313 10.542969 73 10.78125 C 72.921875 10.789063 72.917969 10.753906 72.929688 10.710938 C 72.9375 10.695313 72.941406 10.679688 72.949219 10.660156 C 72.949219 10.660156 72.953125 10.65625 72.953125 10.65625 C 73.132813 10.195313 73.742188 8.652344 74.402344 7.089844 C 74.664063 6.464844 74.933594 5.835938 75.191406 5.273438 C 75.441406 4.71875 75.675781 4.222656 75.875 3.855469 C 76.234375 3.175781 76.480469 2.914063 76.769531 3.199219 C 78.203125 4.605469 80.234375 9.523438 82.746094 11.21875 C 82.746094 11.21875 82.753906 11.226563 82.773438 11.238281 C 82.796875 11.257813 82.828125 11.277344 82.859375 11.292969 C 82.871094 11.296875 82.878906 11.300781 82.890625 11.308594 C 83.042969 11.390625 83.308594 11.511719 83.636719 11.554688 C 84.183594 11.625 84.6875 11.339844 84.898438 10.550781 C 84.957031 10.351563 85 10.128906 85.027344 9.882813 C 85.03125 9.839844 85.035156 9.789063 85.035156 9.742188 C 85.109375 8.226563 84.246094 4.292969 83.714844 3.09375 C 83.164063 1.859375 82.621094 2.226563 82.332031 2.585938 C 82.121094 2.855469 81.351563 4.230469 80.984375 4.898438 C 81.097656 5.078125 81.1875 5.21875 81.300781 5.394531 C 81.992188 4.257813 82.339844 3.808594 82.542969 3.542969 C 82.621094 3.441406 82.71875 3.496094 82.726563 3.648438 C 82.730469 3.6875 82.734375 3.722656 82.738281 3.769531 C 82.8125 4.847656 82.953125 6.894531 83.007813 7.855469 C 83.015625 7.996094 83.023438 8.15625 83.027344 8.242188 C 82.800781 8.003906 82.601563 7.738281 82.507813 7.605469 C 81.066406 5.554688 79.035156 2.128906 78.164063 1.121094 C 77.519531 0.378906 75.550781 -1.648438 74.027344 2.714844 "/>
</g>
</g>
</svg>
