<svg width="88" height="29" viewBox="0 0 88 29" fill="none" xmlns="http://www.w3.org/2000/svg">
<path fill-rule="evenodd" clip-rule="evenodd" d="M27.2763 0.672687C28.0025 0.478268 28.7278 0.478268 29.4541 0.575943C30.2651 0.673899 31.0432 0.956419 31.7291 1.40199V3.2978C31.2937 2.95734 30.8583 2.66525 30.3257 2.47083C29.6686 2.19342 28.9551 2.07704 28.2443 2.13129C27.9053 2.17966 27.5662 2.22804 27.2763 2.42245C27.07 2.5323 26.9012 2.70178 26.7918 2.90897C26.6473 3.15083 26.6473 3.44292 26.6955 3.73501C26.7437 3.9778 26.8891 4.22059 27.0827 4.36757C27.3245 4.56106 27.6635 4.70711 27.9534 4.80478C28.5833 5.04664 29.2123 5.29036 29.8894 5.48478C30.4221 5.6792 30.9547 5.97036 31.3901 6.3592C31.8254 6.74804 32.1163 7.23455 32.2126 7.76943C32.3099 8.35269 32.3581 8.93594 32.2126 9.47083C32.0629 9.97527 31.7784 10.4289 31.3901 10.7825C30.9547 11.1713 30.4702 11.415 29.9385 11.5601C29.2127 11.7536 28.4563 11.8032 27.7117 11.7062C26.7918 11.6094 25.8238 11.3173 25.0494 10.7825V8.83827C25.9693 9.61594 27.18 10.1025 28.3897 10.1025C28.9214 10.1025 29.455 10.0541 29.8904 9.81036C30.1312 9.66525 30.3739 9.47083 30.4702 9.17873C30.5675 8.88664 30.5675 8.54618 30.4702 8.20664C30.3739 7.91548 30.1321 7.67176 29.8413 7.52571C29.3577 7.23455 28.8251 7.0885 28.2925 6.89408C27.6626 6.65129 27.0345 6.45687 26.4537 6.11641C26.0184 5.87362 25.583 5.53315 25.3403 5.09594C24.9531 4.51269 24.8558 3.78432 24.9531 3.10339C25.0013 2.47083 25.3403 1.8392 25.7757 1.45036C26.211 1.06152 26.7437 0.817803 27.2763 0.672687V0.672687ZM70.1591 1.16013C70.8854 0.673618 71.8043 0.527571 72.6759 0.527571C73.7412 0.527571 74.8537 0.819664 75.7735 1.40292V3.29873C75.3863 3.00664 74.951 2.71548 74.5147 2.52106C73.7403 2.18059 72.8695 2.03455 71.9979 2.18059C71.5625 2.27827 71.079 2.47269 70.8363 2.86152C70.5945 3.34711 70.6909 3.97873 71.0781 4.3192C71.3689 4.61129 71.8043 4.75641 72.1915 4.85408C72.8214 5.09687 73.4503 5.29129 74.0793 5.53408C74.6601 5.7778 75.1927 6.06897 75.5799 6.50618C75.9671 6.89501 76.2098 7.4299 76.3062 7.96478C76.41 8.57064 76.3426 9.1936 76.1117 9.76292C75.919 10.2494 75.5799 10.6373 75.1446 10.9778C74.6601 11.3183 74.0793 11.5127 73.4494 11.6587C72.6278 11.8048 71.7561 11.7555 70.9335 11.5611C70.2555 11.4159 69.5783 11.1722 68.9975 10.735V8.79083C69.7229 9.37408 70.5945 9.81129 71.5625 9.95734C71.9497 10.055 72.3851 10.055 72.7723 10.0057C73.2076 9.95734 73.5958 9.90897 73.983 9.66618C74.2729 9.47083 74.4665 9.22897 74.5147 8.8885C74.5638 8.49966 74.5147 8.06153 74.2738 7.77036C74.0232 7.52164 73.7273 7.32363 73.4022 7.18711C72.8695 6.99176 72.3851 6.79827 71.8534 6.60385C71.3689 6.4085 70.8363 6.26339 70.4009 5.97129C69.9655 5.72943 69.5783 5.38897 69.3356 4.95083C69.0901 4.52146 68.9569 4.0366 68.9485 3.54152C68.9003 3.10432 68.9975 2.66711 69.143 2.2299C69.3366 1.88943 69.7228 1.45129 70.1591 1.16013V1.16013ZM81.9678 0.819664C82.479 0.62927 83.0196 0.530712 83.5648 0.528501C84.6782 0.528501 85.7917 0.770362 86.7597 1.35455C86.8078 1.35455 86.8078 1.40292 86.8078 1.45129V3.29873C86.3801 2.95986 85.9079 2.68189 85.4044 2.47269C84.7746 2.22897 84.0492 2.08385 83.3712 2.13222C83.0331 2.18059 82.645 2.22897 82.355 2.42339C82.1132 2.56943 81.9197 2.76385 81.8224 2.95827C81.6288 3.44478 81.726 4.02804 82.1132 4.3192C82.5486 4.65966 83.0813 4.80571 83.6139 5.00013C84.1938 5.24199 84.8236 5.43734 85.4044 5.68013C85.9371 5.92292 86.4697 6.26339 86.8078 6.7499C87.195 7.28385 87.3405 7.91641 87.3405 8.54804C87.3405 9.13129 87.195 9.71455 86.9051 10.1518C86.5757 10.6223 86.1234 10.9924 85.598 11.2215C85.0172 11.4643 84.4364 11.6104 83.8075 11.6104C83.1294 11.6587 82.4514 11.5611 81.7742 11.415C81.1562 11.2741 80.5669 11.0277 80.0318 10.6866V8.74245C80.9517 9.52013 82.1614 10.0057 83.3712 10.0057C83.9038 10.0057 84.4365 9.95734 84.92 9.71455C85.1627 9.5685 85.3554 9.37408 85.4526 9.08199C85.5493 8.76555 85.5493 8.42727 85.4526 8.11083C85.3554 7.81873 85.1136 7.57594 84.8227 7.4299C84.3392 7.13873 83.8075 6.99269 83.2749 6.79734C82.645 6.55548 82.016 6.36013 81.4352 6.02059C80.9517 5.7778 80.5644 5.38804 80.2736 4.90246C79.9836 4.41687 79.8864 3.78432 79.8864 3.20106C79.8864 2.66711 80.0809 2.13129 80.419 1.69408C80.8544 1.35455 81.387 1.01501 81.9678 0.819664V0.819664ZM44.0695 0.528501C46.5372 2.9099 49.0067 5.29129 51.5226 7.67269V0.72292H53.3141V11.8048C51.668 10.1518 49.9738 8.54804 48.2805 6.89501C47.457 6.11734 46.6826 5.33966 45.86 4.56199V11.6104H44.0695V0.528501ZM0.268626 0.721059H3.12353C3.80159 0.721059 4.47873 0.672687 5.10863 0.818734C5.73759 0.915478 6.36656 1.15827 6.8501 1.59641C7.23823 1.93594 7.52816 2.42245 7.62543 2.90804C7.76993 3.49129 7.76993 4.07548 7.57633 4.6578C7.38273 5.24106 6.94736 5.77594 6.36656 6.01873L6.65743 6.16478C7.18901 6.46249 7.61265 6.92212 7.86719 7.47734C8.06079 7.91455 8.10896 8.35176 8.06079 8.83827C8.01263 9.42153 7.81903 10.0048 7.4309 10.4904C6.99553 11.0252 6.36656 11.3657 5.73759 11.5118C5.15679 11.6578 4.62416 11.6578 4.04336 11.6578H0.268626V0.721059ZM2.05919 2.32571V5.29129H4.23696C4.67233 5.29129 5.20496 5.19362 5.54307 4.85408C5.78576 4.61036 5.93119 4.27083 5.97936 3.93036C6.00661 3.74161 5.99493 3.54926 5.94506 3.36523C5.89518 3.1812 5.80817 3.00944 5.68943 2.86059C5.44673 2.6178 5.15679 2.47176 4.81869 2.37501C4.43056 2.27734 4.04336 2.32571 3.70433 2.32571H2.05919V2.32571ZM2.05919 6.79827V9.95734H4.38147C4.81684 9.95734 5.2522 9.85966 5.6394 9.61687C5.97844 9.42246 6.17204 9.08199 6.22021 8.69315C6.27141 8.48803 6.28066 8.2746 6.24738 8.06579C6.21411 7.85697 6.139 7.6571 6.02661 7.47827C5.83946 7.20353 5.56725 6.99851 5.25221 6.89501C4.95608 6.79554 4.64554 6.74618 4.3333 6.74897C3.60707 6.79827 2.83267 6.79827 2.05827 6.79827H2.05919ZM12.031 0.721059H13.8706V6.35827C13.8706 7.0392 13.8216 7.67176 14.0152 8.35176C14.1606 8.88664 14.4024 9.37222 14.8386 9.71269C15.274 10.0532 15.8066 10.1499 16.3874 10.1499C16.9192 10.1499 17.5 10.0532 17.9362 9.71269C18.3234 9.42153 18.5652 9.03269 18.7106 8.59455C18.8552 8.05966 18.9042 7.52478 18.9042 6.99083V0.769431H20.743V7.28199C20.743 8.15734 20.5976 9.08106 20.1622 9.85873C19.775 10.5387 19.1942 11.122 18.468 11.4141C17.6454 11.7545 16.7265 11.8513 15.8548 11.8029C15.2317 11.7617 14.623 11.5963 14.0642 11.3164C13.647 11.111 13.2825 10.8118 12.999 10.442C12.66 10.0532 12.4182 9.51827 12.2728 9.03269C12.0792 8.44943 12.031 7.81687 12.031 7.23362V0.721059ZM37.0054 0.721059H38.8441V11.6085H37.0063V0.721059H37.0054ZM58.2032 0.721059H64.7856V2.37222H60.0429V4.99734H64.3011V6.60106H60.0419V9.95455H64.7847V11.6076H58.2032V2.76106C58.2032 2.08106 58.1541 1.40013 58.2032 0.720129V0.721059ZM7.33456 17.0978L14.7405 24.0969V17.2439H16.4819V28.1304C14.0142 25.749 11.5456 23.3676 9.12606 20.9862V27.9359H7.38273C7.34248 24.3231 7.32642 20.71 7.33456 17.0969V17.0978ZM22.7262 17.4857C23.4034 17.1452 24.1778 17.0485 24.9522 17.0969C25.9693 17.1452 26.9854 17.388 27.8562 17.9713V19.8671C27.4208 19.5276 26.9854 19.2355 26.4528 19.0411C25.7957 18.7633 25.0822 18.6466 24.3714 18.7006C24.0333 18.749 23.6942 18.7983 23.4034 18.9927C23.1803 19.1256 23.0096 19.3316 22.9198 19.5759C22.7744 20.0132 22.8717 20.4997 23.1616 20.7908C23.4034 21.0336 23.7424 21.1797 24.0814 21.3257C24.7104 21.5685 25.3875 21.8113 26.0174 22.0057C26.5501 22.2011 27.0336 22.4429 27.469 22.7834C27.9043 23.1239 28.1952 23.6104 28.3397 24.1443C28.4861 24.6792 28.4861 25.2141 28.3888 25.7973C28.2891 26.325 28.0165 26.8041 27.6144 27.1583C27.2272 27.5471 26.6946 27.7908 26.1629 27.9843C25.4848 28.1797 24.8077 28.2271 24.0814 28.1797C23.3552 28.1304 22.629 27.9843 22 27.6932C21.7091 27.5471 21.4192 27.4494 21.1774 27.2559V25.3601C22.0973 26.1378 23.307 26.575 24.5168 26.6234C25.0494 26.6234 25.5821 26.575 26.0174 26.3322C26.3074 26.1862 26.501 25.9434 26.5982 25.6513C26.6946 25.3601 26.6946 25.0187 26.5501 24.7276C26.4528 24.4364 26.1629 24.1936 25.9202 24.0476C25.4407 23.8031 24.9379 23.6077 24.4195 23.4643C23.8387 23.269 23.2589 23.0755 22.7262 22.7834C22.2392 22.5356 21.8229 22.1674 21.5165 21.7136C21.2256 21.228 21.0811 20.6448 21.1283 20.1108C21.1283 19.5759 21.2738 19.0411 21.5637 18.6039C21.8064 18.0206 22.2418 17.6801 22.7262 17.4857V17.4857ZM0.268626 17.2429H2.10736V27.9852H0.2677V17.2429H0.268626ZM33.0843 17.2429H34.9221V27.9852H33.0834V17.2429H33.0843ZM40.2466 17.2429H44.4576C45.571 17.2429 46.6835 17.535 47.5552 18.215C48.3296 18.7499 48.8613 19.5276 49.2003 20.4029C49.443 21.1313 49.5875 21.9099 49.5394 22.6866C49.5394 23.8048 49.2976 24.9229 48.6686 25.8466C48.1607 26.6413 47.4147 27.2537 46.5381 27.5955C45.8619 27.8876 45.1347 27.9852 44.4094 27.9852H40.1984C40.2466 24.388 40.2466 20.8401 40.2466 17.2429V17.2429ZM42.0862 18.8476V26.3322H43.8277C44.1667 26.3322 44.5539 26.3322 44.893 26.2839C45.571 26.1862 46.2482 25.9434 46.7326 25.4578C47.168 25.069 47.4579 24.4857 47.6034 23.9025C47.7477 23.3313 47.7968 22.74 47.7488 22.1527C47.7006 21.6178 47.6034 21.0829 47.3616 20.5973C47.1656 20.1181 46.8277 19.7109 46.3936 19.4308C45.9053 19.0948 45.3377 18.8937 44.7475 18.8476C44.4094 18.7983 44.0222 18.8476 43.6823 18.7983C43.1506 18.8476 42.6179 18.8476 42.0862 18.8476V18.8476ZM53.4132 17.2429H59.9474V18.8476H55.2038V21.4234H59.4148V23.0271H55.2038V26.3322H59.9465V27.9359H53.4132V17.2429V17.2429ZM65.3673 17.2429H69.3847C70.0628 17.2429 70.7399 17.3406 71.3207 17.6801C71.8052 17.9239 72.1915 18.2643 72.4823 18.7015C72.8214 19.2364 72.9668 19.868 72.9177 20.4997C72.9177 21.1322 72.8214 21.8113 72.4823 22.3471C72.2406 22.7843 71.8534 23.0755 71.4171 23.2699C71.0927 23.4118 70.751 23.51 70.4009 23.562C71.7079 25.0197 72.9668 26.4783 74.2729 27.9852H72.1924C70.9335 26.5266 69.7238 25.069 68.4649 23.6597H67.207V27.9852H65.3673V17.2429V17.2429ZM67.207 18.8476V22.1034H69.3366C69.8201 22.1034 70.3046 21.9583 70.6918 21.6178C70.9335 21.375 71.079 21.0829 71.1271 20.7434C71.1762 20.3536 71.1271 19.868 70.8854 19.5276C70.6918 19.1871 70.3046 18.9927 69.9174 18.895C69.5302 18.7983 69.143 18.7983 68.7558 18.7983C68.2231 18.8476 67.7396 18.8476 67.207 18.8476V18.8476Z" fill="black"/>
</svg>
