<?xml version="1.0" encoding="UTF-8"?>
<svg xmlns="http://www.w3.org/2000/svg" xmlns:xlink="http://www.w3.org/1999/xlink" width="638.93pt" height="638.93pt" viewBox="0 0 638.93 638.93" version="1.1">
<defs>
<clipPath id="clip1">
  <path d="M 35 611 L 37 611 L 37 638.929688 L 35 638.929688 Z M 35 611 "/>
</clipPath>
<clipPath id="clip2">
  <path d="M 611 35 L 638.929688 35 L 638.929688 37 L 611 37 Z M 611 35 "/>
</clipPath>
<clipPath id="clip3">
  <path d="M 611 602 L 638.929688 602 L 638.929688 604 L 611 604 Z M 611 602 "/>
</clipPath>
<clipPath id="clip4">
  <path d="M 602 611 L 604 611 L 604 638.929688 L 602 638.929688 Z M 602 611 "/>
</clipPath>
</defs>
<g id="surface1">
<path style=" stroke:none;fill-rule:nonzero;fill:rgb(12.5%,2.69928%,0%);fill-opacity:1;" d="M 362.773438 337.050781 C 355.5625 344.261719 345.613281 348.714844 334.605469 348.71875 C 323.601563 348.714844 313.65625 344.261719 306.441406 337.050781 C 299.230469 329.835938 294.773438 319.886719 294.773438 308.882813 C 294.773438 297.878906 299.230469 287.929688 306.441406 280.71875 C 313.65625 273.507813 323.601563 269.050781 334.605469 269.050781 C 345.613281 269.050781 355.5625 273.507813 362.773438 280.71875 C 369.984375 287.929688 374.441406 297.878906 374.441406 308.882813 C 374.441406 319.886719 369.984375 329.835938 362.773438 337.050781 Z M 374.539063 293.074219 C 368.242188 277.183594 352.738281 265.949219 334.605469 265.945313 C 310.894531 265.949219 291.671875 285.171875 291.671875 308.882813 C 291.671875 332.597656 310.894531 351.820313 334.605469 351.820313 C 352.738281 351.820313 368.242188 340.582031 374.539063 324.691406 L 374.539063 349.117188 L 377.644531 349.117188 L 377.644531 267.953125 L 374.539063 267.953125 L 374.539063 293.074219 "/>
<path style=" stroke:none;fill-rule:nonzero;fill:rgb(12.5%,2.69928%,0%);fill-opacity:1;" d="M 255.53125 265.816406 C 243.371094 265.792969 235.261719 271.386719 230.441406 278.160156 C 228.34375 281.105469 226.828125 284.242188 225.785156 287.273438 C 224.800781 283.800781 223.160156 280.15625 220.609375 276.839844 C 215.875 270.660156 207.894531 265.792969 195.804688 265.816406 C 183.644531 265.792969 175.535156 271.386719 170.71875 278.160156 C 169.253906 280.214844 168.074219 282.367188 167.140625 284.511719 L 167.140625 267.953125 L 164.035156 267.953125 L 164.035156 349.117188 L 167.140625 349.117188 C 167.140625 349.117188 167.125 297.792969 167.125 297.753906 C 167.144531 293.335938 168.894531 286.011719 173.242188 279.96875 C 177.652344 273.863281 184.609375 268.945313 195.804688 268.921875 C 207.074219 268.945313 213.910156 273.273438 218.152344 278.734375 C 222.382813 284.199219 223.894531 290.96875 223.890625 295.542969 C 223.890625 295.800781 223.890625 349.410156 223.890625 349.410156 L 226.992188 349.410156 C 226.992188 349.410156 226.992188 305.621094 226.992188 296.585938 C 227.265625 292.117188 228.980469 285.507813 232.964844 279.96875 C 237.375 273.863281 244.332031 268.945313 255.53125 268.921875 C 266.800781 268.945313 273.632813 273.273438 277.878906 278.734375 C 282.105469 284.199219 283.621094 290.96875 283.613281 295.542969 C 283.613281 301.382813 283.613281 349.410156 283.613281 349.410156 L 286.714844 349.410156 C 286.714844 349.410156 286.714844 301.382813 286.714844 295.542969 C 286.707031 290.339844 285.082031 283.019531 280.335938 276.839844 C 275.597656 270.660156 267.617188 265.792969 255.53125 265.816406 "/>
<path style=" stroke:none;fill-rule:nonzero;fill:rgb(12.5%,2.69928%,0%);fill-opacity:1;" d="M 531.671875 267.769531 L 528.292969 267.742188 L 495 345 L 463.605469 267.800781 L 460.261719 267.804688 L 493.277344 349 L 478.894531 382.371094 L 482.285156 382.382813 L 531.671875 267.769531 "/>
<path style=" stroke:none;fill-rule:nonzero;fill:rgb(12.5%,2.69928%,0%);fill-opacity:1;" d="M 573.898438 315 C 570.597656 310.515625 564.578125 307.234375 553.566406 304.261719 C 544.515625 301.820313 539.949219 298.132813 537.578125 294.894531 C 535.210938 291.65625 534.988281 288.765625 534.988281 287.753906 C 534.988281 287.613281 534.992188 287.511719 534.996094 287.453125 C 534.996094 287.425781 535 287.402344 535 287.394531 L 535.015625 287.246094 L 535.003906 287.09375 C 535.003906 287.09375 535 287.050781 534.992188 286.914063 C 534.988281 286.777344 534.980469 286.566406 534.980469 286.300781 C 534.972656 284.5 535.289063 280.027344 537.6875 276.1875 C 540.109375 272.371094 544.390625 268.964844 553.3125 268.921875 C 562.691406 268.964844 567.113281 272.566406 569.5625 276.441406 C 571.988281 280.332031 572.210938 284.71875 572.203125 285.941406 C 572.203125 286.175781 572.195313 286.265625 572.199219 286.269531 L 575.296875 286.425781 C 575.300781 286.402344 575.308594 286.230469 575.308594 285.941406 C 575.300781 284.410156 575.097656 279.511719 572.199219 274.804688 C 569.320313 270.078125 563.519531 265.773438 553.3125 265.816406 C 543.566406 265.773438 537.90625 269.878906 535.054688 274.550781 C 532.179688 279.199219 531.886719 284.191406 531.878906 286.300781 C 531.878906 286.730469 531.890625 287.039063 531.902344 287.210938 C 531.894531 287.332031 531.882813 287.515625 531.882813 287.753906 C 531.882813 289.21875 532.222656 292.832031 535.070313 296.726563 C 537.914063 300.625 543.210938 304.695313 552.761719 307.261719 C 563.535156 310.148438 568.828125 313.292969 571.394531 316.832031 C 573.980469 320.339844 574.25 324.734375 574.238281 330.871094 C 574.242188 335.476563 572.027344 339.964844 568.277344 343.328125 C 564.527344 346.6875 559.277344 348.882813 553.3125 348.878906 C 548.472656 348.886719 543.105469 347.226563 539.035156 343.789063 C 534.96875 340.34375 532.105469 335.199219 532.089844 327.804688 L 528.984375 327.804688 C 528.96875 336.027344 532.308594 342.199219 537.039063 346.164063 C 541.765625 350.136719 547.785156 351.980469 553.3125 351.980469 C 566.757813 351.972656 577.296875 342.113281 577.34375 330.871094 C 577.335938 324.746094 577.183594 319.515625 573.898438 315 "/>
<path style=" stroke:none;fill-rule:nonzero;fill:rgb(84.298706%,9.799194%,12.5%);fill-opacity:1;" d="M 111.867188 296.878906 L 101.066406 263.628906 L 90.261719 296.878906 L 55.300781 296.878906 L 83.585938 317.425781 L 72.78125 350.675781 L 101.066406 330.128906 L 129.351563 350.675781 L 118.546875 317.425781 L 146.828125 296.878906 L 111.867188 296.878906 "/>
<path style=" stroke:none;fill-rule:nonzero;fill:rgb(12.5%,2.69928%,0%);fill-opacity:1;" d="M 530.707031 260.460938 L 535.9375 256.660156 L 541.171875 260.460938 L 539.171875 254.3125 L 544.40625 250.507813 L 537.9375 250.507813 L 535.9375 244.359375 L 533.941406 250.507813 L 527.472656 250.507813 L 532.703125 254.3125 L 530.707031 260.460938 "/>
<path style=" stroke:none;fill-rule:nonzero;fill:rgb(12.5%,2.69928%,0%);fill-opacity:1;" d="M 423.972656 269.050781 C 434.976563 269.050781 444.925781 273.507813 452.136719 280.71875 C 455.792969 284.371094 458.738281 288.730469 460.753906 293.574219 L 464.09375 293.574219 C 457.929688 277.421875 442.292969 265.949219 423.972656 265.945313 C 400.257813 265.949219 381.035156 285.171875 381.035156 308.882813 C 381.035156 332.597656 400.257813 351.820313 423.972656 351.820313 C 442.195313 351.820313 457.765625 340.46875 463.996094 324.445313 L 460.648438 324.445313 C 458.636719 329.1875 455.730469 333.457031 452.136719 337.050781 C 444.925781 344.261719 434.976563 348.714844 423.972656 348.71875 C 412.96875 348.714844 403.019531 344.261719 395.804688 337.050781 C 388.59375 329.835938 384.140625 319.886719 384.136719 308.882813 C 384.140625 297.878906 388.59375 287.929688 395.804688 280.71875 C 403.019531 273.507813 412.96875 269.050781 423.972656 269.050781 "/>
<path style="fill:none;stroke-width:5;stroke-linecap:butt;stroke-linejoin:miter;stroke:rgb(0%,0%,0%);stroke-opacity:1;stroke-miterlimit:4;" d="M 270 360.003125 L 0 360.003125 " transform="matrix(0.1,0,0,-0.1,0,638.93)"/>
<g clip-path="url(#clip1)" clip-rule="nonzero">
<path style="fill:none;stroke-width:5;stroke-linecap:butt;stroke-linejoin:miter;stroke:rgb(0%,0%,0%);stroke-opacity:1;stroke-miterlimit:4;" d="M 360 270.003125 L 360 0.003125 " transform="matrix(0.1,0,0,-0.1,0,638.93)"/>
</g>
<path style="fill:none;stroke-width:5;stroke-linecap:butt;stroke-linejoin:miter;stroke:rgb(0%,0%,0%);stroke-opacity:1;stroke-miterlimit:4;" d="M 270 6029.3 L 0 6029.3 " transform="matrix(0.1,0,0,-0.1,0,638.93)"/>
<path style="fill:none;stroke-width:5;stroke-linecap:butt;stroke-linejoin:miter;stroke:rgb(0%,0%,0%);stroke-opacity:1;stroke-miterlimit:4;" d="M 360 6119.3 L 360 6389.3 " transform="matrix(0.1,0,0,-0.1,0,638.93)"/>
<g clip-path="url(#clip2)" clip-rule="nonzero">
<path style="fill:none;stroke-width:5;stroke-linecap:butt;stroke-linejoin:miter;stroke:rgb(0%,0%,0%);stroke-opacity:1;stroke-miterlimit:4;" d="M 6119.296875 6029.3 L 6389.296875 6029.3 " transform="matrix(0.1,0,0,-0.1,0,638.93)"/>
</g>
<path style="fill:none;stroke-width:5;stroke-linecap:butt;stroke-linejoin:miter;stroke:rgb(0%,0%,0%);stroke-opacity:1;stroke-miterlimit:4;" d="M 6029.296875 6119.3 L 6029.296875 6389.3 " transform="matrix(0.1,0,0,-0.1,0,638.93)"/>
<g clip-path="url(#clip3)" clip-rule="nonzero">
<path style="fill:none;stroke-width:5;stroke-linecap:butt;stroke-linejoin:miter;stroke:rgb(0%,0%,0%);stroke-opacity:1;stroke-miterlimit:4;" d="M 6119.296875 360.003125 L 6389.296875 360.003125 " transform="matrix(0.1,0,0,-0.1,0,638.93)"/>
</g>
<g clip-path="url(#clip4)" clip-rule="nonzero">
<path style="fill:none;stroke-width:5;stroke-linecap:butt;stroke-linejoin:miter;stroke:rgb(0%,0%,0%);stroke-opacity:1;stroke-miterlimit:4;" d="M 6029.296875 270.003125 L 6029.296875 0.003125 " transform="matrix(0.1,0,0,-0.1,0,638.93)"/>
</g>
</g>
</svg>
